<?xml version="1.0" standalone="no"?>
<!DOCTYPE svg PUBLIC "-//W3C//DTD SVG 20010904//EN"
 "http://www.w3.org/TR/2001/REC-SVG-20010904/DTD/svg10.dtd">
<svg version="1.0" xmlns="http://www.w3.org/2000/svg"
 width="500.000000pt" height="500.000000pt" viewBox="0 0 500.000000 500.000000"
 preserveAspectRatio="xMidYMid meet">

<g transform="translate(0.000000,500.000000) scale(0.100000,-0.100000)"
fill="#000000" stroke="none">
<path d="M2248 3101 c-11 -12 -24 -18 -34 -14 -25 9 -122 -92 -154 -162 -31
-67 -40 -101 -79 -300 -15 -77 -32 -140 -37 -140 -5 0 -12 16 -15 35 -8 39
-56 222 -92 344 l-22 80 -60 -3 c-33 -1 -62 -4 -64 -6 -8 -8 47 -246 59 -255
4 -3 12 -34 19 -70 23 -122 102 -395 119 -412 14 -14 25 -15 66 -7 27 5 51 11
54 14 2 2 7 25 9 50 7 54 18 49 53 -22 13 -27 52 -76 86 -110 67 -68 97 -79
184 -71 43 4 61 13 116 53 10 7 21 5 36 -4 56 -35 86 -46 133 -46 72 0 156 43
196 101 l31 45 61 -6 c34 -3 67 -2 74 2 8 6 13 43 15 103 l3 95 36 3 c40 3 44
-1 89 -125 12 -34 28 -67 34 -72 16 -13 62 -16 104 -7 30 7 33 10 27 37 -4 16
-23 62 -42 101 -40 80 -47 134 -20 149 19 11 52 113 43 135 -3 9 -1 12 4 9 14
-9 13 110 -1 154 -20 63 -32 81 -52 81 -28 0 -77 38 -77 61 0 18 -8 19 -127
19 l-128 0 -57 64 c-66 74 -140 116 -203 116 -27 0 -65 -11 -105 -32 -50 -25
-66 -29 -79 -20 -43 31 -79 45 -130 49 -48 4 -59 2 -73 -16z m457 -41 c-3 -5
-2 -10 4 -10 25 0 119 -103 148 -162 72 -145 83 -411 23 -544 -20 -44 -24 -46
-35 -30 -13 16 -15 15 -35 -23 -11 -23 -25 -41 -30 -41 -5 0 -13 -12 -16 -26
l-6 -25 -24 22 c-32 30 -30 50 6 82 21 19 30 36 30 57 0 19 5 30 14 30 22 0
29 36 35 185 6 138 6 139 20 95 8 -25 17 -72 21 -105 l7 -60 3 50 c5 73 0 147
-10 170 -5 11 -16 44 -25 74 -26 82 -87 167 -130 181 -69 23 -159 -11 -219
-81 -20 -24 -36 -46 -36 -51 0 -4 -4 -8 -10 -8 -13 0 -13 18 1 33 29 34 52 85
50 112 -2 26 4 35 36 57 32 22 50 26 111 27 47 1 71 -3 67 -9z m-504 -49 c-17
-14 -31 -34 -31 -43 0 -10 -13 -44 -30 -76 -41 -81 -59 -169 -61 -292 -1 -58
-3 -98 -6 -89 -2 10 -13 19 -24 22 -16 4 -19 14 -19 54 1 137 33 266 85 343
19 29 35 59 35 67 0 8 4 11 10 8 13 -8 59 26 60 45 1 12 3 13 7 1 3 -8 -7 -25
-26 -40z m-471 -186 c0 -17 -2 -17 -10 -5 -5 8 -10 24 -10 35 0 17 2 17 10 5
5 -8 10 -24 10 -35z m873 -15 c18 -30 59 -42 72 -20 3 5 12 7 20 4 10 -4 15
-26 17 -72 3 -58 6 -68 26 -77 23 -10 26 -23 15 -75 -3 -19 -13 -35 -24 -37
-20 -6 -31 -38 -23 -70 5 -17 2 -23 -11 -23 -16 0 -17 8 -12 68 6 70 -11 171
-33 197 -7 8 -20 17 -30 20 -39 12 -81 115 -47 115 7 0 21 -13 30 -30z m127 5
c7 -9 8 -15 2 -15 -5 0 -12 7 -16 15 -3 8 -4 15 -2 15 2 0 9 -7 16 -15z m426
-82 c6 -51 -6 -136 -22 -152 -7 -7 -117 -19 -126 -14 -5 2 -8 53 -8 114 l0
109 74 0 75 0 7 -57z m-592 -14 c31 -71 33 -94 8 -96 -11 -1 -41 -15 -67 -32
-27 -17 -54 -31 -61 -31 -6 0 -26 -13 -42 -28 -22 -21 -35 -26 -46 -20 -20 11
-21 28 -1 28 9 0 44 18 78 40 35 22 80 46 100 55 42 17 43 38 2 91 -24 31 -26
54 -6 54 5 0 20 -27 35 -61z m211 11 c19 -22 24 -81 9 -87 -22 -8 -44 23 -44
60 0 43 11 78 18 56 3 -7 10 -21 17 -29z m-575 -27 c0 -9 -8 -22 -17 -29 -12
-8 -20 -32 -24 -76 l-6 -63 -1 78 c-1 42 2 77 7 77 5 0 11 9 14 21 6 23 27 17
27 -8z m443 -259 c-6 -80 -14 -148 -17 -152 -9 -9 -66 53 -66 72 0 29 -17 17
-36 -26 -10 -23 -47 -71 -81 -105 -61 -62 -62 -63 -118 -63 -70 0 -112 17
-153 64 -52 59 -39 76 18 22 56 -52 70 -57 70 -21 0 26 -1 25 78 29 9 1 22 4
27 8 53 39 77 66 99 110 l26 51 -20 32 c-11 18 -20 35 -20 39 0 3 17 13 38 21
20 9 51 29 67 45 31 29 73 42 89 28 6 -5 6 -62 -1 -154z m-294 9 c2 -2 0 -3
-6 -3 -6 0 -21 9 -34 21 l-24 20 30 -17 c17 -10 32 -19 34 -21z m65 -7 c20
-42 20 -56 1 -56 -9 0 -15 9 -15 24 0 14 -4 28 -10 31 -12 8 -13 35 -1 35 5 0
16 -15 25 -34z m354 -27 c4 -24 3 -24 -12 -4 -19 24 -20 38 -3 33 6 -3 13 -15
15 -29z m-568 -6 c0 -29 -2 -29 -19 5 -10 18 -9 22 4 22 10 0 15 -9 15 -27z
m-82 -68 c-3 -3 -9 2 -12 12 -6 14 -5 15 5 6 7 -7 10 -15 7 -18z m206 -36 c-3
-5 -10 -7 -15 -3 -5 3 -7 10 -3 15 3 5 10 7 15 3 5 -3 7 -10 3 -15z"/>
<path d="M376 2942 c-25 -10 -35 -21 -42 -50 -7 -29 -14 -37 -31 -35 -16 2
-26 -8 -41 -40 -42 -91 -47 -120 -47 -262 0 -137 1 -141 32 -206 40 -81 99
-142 159 -165 43 -16 49 -16 98 -1 31 10 73 34 100 58 39 35 46 46 46 78 0 26
-9 51 -30 79 -31 43 -60 55 -60 24 0 -16 -80 -62 -108 -62 -17 0 -72 50 -87
81 -34 65 -31 273 4 282 11 2 21 18 25 37 l6 33 51 -6 c37 -5 60 -15 85 -37
19 -16 43 -30 54 -30 26 0 60 47 60 82 0 45 -27 101 -45 94 -9 -3 -14 -2 -11
3 10 15 -29 40 -79 50 -60 12 -96 10 -139 -7z"/>
<path d="M832 2945 c-39 -17 -59 -39 -107 -116 -29 -47 -35 -66 -35 -113 0
-43 -3 -56 -15 -56 -20 0 -20 -131 0 -217 15 -65 63 -162 98 -202 30 -33 115
-71 158 -71 66 0 162 79 200 166 23 51 49 172 49 227 0 101 -53 281 -81 275
-7 -2 -15 6 -17 17 -19 85 -151 133 -250 90z m158 -187 c36 -21 40 -27 40 -63
0 -22 4 -35 8 -28 10 15 8 -165 -3 -202 -9 -33 -34 -61 -82 -94 l-32 -22 -38
20 c-53 26 -69 47 -88 115 -12 42 -15 74 -10 114 8 66 46 156 71 171 31 18 92
13 134 -11z m25 2 c3 -6 -1 -7 -9 -4 -18 7 -21 14 -7 14 6 0 13 -4 16 -10z"/>
<path d="M1228 2933 c-7 -28 -13 -722 -6 -728 1 -2 23 -6 48 -9 75 -11 75 -10
78 194 2 99 7 180 11 180 10 0 114 -192 136 -252 10 -26 33 -66 52 -88 32 -37
39 -41 77 -38 l41 3 0 370 0 370 -57 3 -57 3 -6 -43 c-3 -24 -4 -86 -2 -138 4
-101 -1 -180 -12 -180 -7 0 -35 50 -119 210 -30 58 -58 107 -62 110 -3 3 -9
13 -13 23 -5 13 -18 17 -57 17 -27 0 -51 -3 -52 -7z"/>
<path d="M3440 2318 c0 -66 4 -108 10 -108 13 0 13 180 0 200 -7 10 -10 -19
-10 -92z"/>
<path d="M4052 2228 c6 -16 55 -31 76 -23 16 6 15 8 -2 21 -24 17 -79 19 -74
2z"/>
</g>
</svg>
